# xmcd CD database file
#
# Track frame offsets:
#	150
#	18983
#	32516
#	51877
#	70360
#	85264
#	103106
#	118256
#	131082
#	152423
#	166947
#	184483
#	202363
#	214319
#	231891
#	250970
#	262896
#	282977
#	299966
#	314640
#
# Disc length: 4460 seconds
#
# Revision: 0
# Processed by: cddbd v1.5.2PL0 Copyright (c) Steve Scherf et al.
# Submitted via: CDex 1.51
#
DISCID=3f116a14
DTITLE=The Real Book Play-Along - Volume II
DYEAR=2010
DGENRE=Jazz
TTITLE0=Sweet Sue-Just You
TTITLE1=The Sweetest Sounds
TTITLE2=Syeeda's Song Flute
TTITLE3='Tain't What You Do (It's The Way That Cha Do It)
TTITLE4=Take The Coltrane
TTITLE5=Tangerine
TTITLE6=Teenie's Blues
TTITLE7=Tempus Fugit
TTITLE8=Tenderly
TTITLE9=Tenor Madness
TTITLE10=There's A Small Hotel
TTITLE11=These Foolish Things (Remind Me Of You)
TTITLE12=Things To Come
TTITLE13=The Things We Did Last Summer
TTITLE14=This Masquerade
TTITLE15=Till There Was You
TTITLE16=Too Young
TTITLE17=Turnaround
TTITLE18=Until I Met You (Corner Pocket)
TTITLE19=Warm Valley
EXTD=YEAR: 2010
EXTT0=
EXTT1=
EXTT2=
EXTT3=
EXTT4=
EXTT5=
EXTT6=
EXTT7=
EXTT8=
EXTT9=
EXTT10=
EXTT11=
EXTT12=
EXTT13=
EXTT14=
EXTT15=
EXTT16=
EXTT17=
EXTT18=
EXTT19=
PLAYORDER=
